<?xml version="1.0"?>
<svg id="Layer_1" style="enable-background:new 0 0 128 128;" version="1.1" viewBox="0 0 128 128"
	xml:space="preserve" xmlns="http://www.w3.org/2000/svg"
	xmlns:xlink="http://www.w3.org/1999/xlink"><path fill="#ffffff" d="M125.77,48.01c-0.62-1.67-1.21-3.24-1.16-4.99c0.08-2.82-0.63-4.89-2.17-6.33c-2.5-2.34-6.07-2-9.85-1.65  c-3.37,0.32-6.86,0.65-9.67-0.76c-4.02-2-7.15-0.85-9.43-0.01c-2.44,0.89-4.19,1.54-7.84-0.73c-3.07-1.92-4.23-4.11-5.35-6.22  c-1.45-2.73-3.26-6.14-8.8-6.63c-7.81-0.7-12.31,6.12-15.61,11.1c-3.64,5.5-4.61,6.15-5.87,5.41c-4.67-2.75-8.5-1.12-11.03-0.03  c-1.84,0.79-2.67,1.07-3.5,0.74c-0.56-0.22-1.19-0.44-1.86-0.65c-0.21-0.06-0.42-0.13-0.64-0.19c-0.42-0.12-0.85-0.24-1.3-0.35  c-6.05-1.49-14.71-2.14-20.16-0.21c-0.01,0-0.01,0-0.02,0.01c-0.04,0.02-0.08,0.03-0.13,0.05c-1.5,0.55-2.75,1.3-3.62,2.29  c-0.84,0.96-1.31,2.06-1.39,3.24c-0.08,1.18,0.22,2.42,0.9,3.66c5.12,9.22,4.2,12.82-2.18,22.26c-4.2,6.21-3.1,10.16-1.45,12.37  c4.26,5.71,16.47,4.78,22.06,3.01c3.83-1.21,6.53-2.98,8.92-4.55c3.37-2.21,5.4-3.54,9.22-2.77c6.69,1.34,12.21,8.04,12.21,10.85  c-0.28,0.44-0.96,1.28-1.47,1.92c-2.35,2.92-5.28,6.56-4.66,10.37c0.2,1.25,0.9,3.03,3.05,4.41c6.13,3.93,11.89-3.95,16.51-10.28  c1.14-1.57,2.73-3.75,3.82-4.9c2.47,2.23,5.22,3.02,7.69,3.23c-0.33,1.03-0.45,2.07-0.3,3.16c0.53,3.82,3.93,6.31,10.72,11.27  c1.21,0.88,2.6,1.33,4.11,1.33c0.64,0,1.31-0.08,1.99-0.25c5.62-1.36,11.01-8.15,12.31-10.76c1.07-2.14,0.74-3.82,0.27-4.86  c-1.28-2.83-4.64-3.71-7.89-4.57c-1-0.26-2.54-0.67-3.39-1.05c1.38-2.48,5.5-5.35,9.17-7.91c4.1-2.85,7.97-5.55,9.58-8.6  c0.83-1.57,0.75-3.25,0.68-4.73c-0.11-2.45,0.07-2.62,0.87-2.97c0.29-0.13,0.58-0.26,0.85-0.38  C128.41,57.37,127.54,52.77,125.77,48.01z"/></svg>